<svg xmlns="http://www.w3.org/2000/svg" xmlns:xlink="http://www.w3.org/1999/xlink" width="80" zoomAndPan="magnify" viewBox="0 0 375 374.999991" height="60" preserveAspectRatio="xMidYMid meet" version="1.0"><defs><clipPath id="1a77171e4a"><path d="M 242.195312 114.222656 L 316.445312 114.222656 L 316.445312 237.972656 L 242.195312 237.972656 Z M 242.195312 114.222656 " clip-rule="nonzero"/></clipPath><clipPath id="d3454c85b6"><path d="M 56.1875 132.804688 L 130.367188 132.804688 L 130.367188 256.554688 L 56.1875 256.554688 Z M 56.1875 132.804688 " clip-rule="nonzero"/></clipPath></defs><g clip-path="url(#1a77171e4a)"><path fill="#e6ecff" d="M 245.78125 234.277344 C 245.199219 233.703125 244.683594 233.078125 244.226562 232.398438 C 243.773438 231.722656 243.386719 231.007812 243.074219 230.253906 C 242.761719 229.5 242.523438 228.722656 242.363281 227.921875 C 242.203125 227.121094 242.125 226.316406 242.125 225.5 C 242.125 224.683594 242.203125 223.875 242.363281 223.074219 C 242.523438 222.273438 242.761719 221.496094 243.074219 220.746094 C 243.386719 219.992188 243.773438 219.277344 244.226562 218.597656 C 244.683594 217.921875 245.199219 217.296875 245.78125 216.722656 L 286.578125 176.046875 L 245.78125 135.371094 C 245.199219 134.796875 244.683594 134.171875 244.226562 133.492188 C 243.773438 132.816406 243.386719 132.101562 243.074219 131.347656 C 242.761719 130.59375 242.523438 129.816406 242.363281 129.015625 C 242.203125 128.214844 242.125 127.410156 242.125 126.59375 C 242.125 125.777344 242.203125 124.96875 242.363281 124.167969 C 242.523438 123.367188 242.761719 122.589844 243.074219 121.839844 C 243.386719 121.085938 243.773438 120.371094 244.226562 119.691406 C 244.683594 119.015625 245.199219 118.390625 245.78125 117.816406 C 246.355469 117.234375 246.980469 116.71875 247.65625 116.261719 C 248.335938 115.808594 249.050781 115.421875 249.804688 115.109375 C 250.558594 114.792969 251.332031 114.558594 252.132812 114.398438 C 252.933594 114.238281 253.742188 114.15625 254.558594 114.15625 C 255.375 114.15625 256.183594 114.238281 256.984375 114.398438 C 257.78125 114.558594 258.558594 114.792969 259.3125 115.109375 C 260.066406 115.421875 260.78125 115.808594 261.457031 116.261719 C 262.136719 116.71875 262.761719 117.234375 263.335938 117.816406 L 312.789062 167.269531 C 313.367188 167.84375 313.886719 168.46875 314.339844 169.144531 C 314.796875 169.824219 315.183594 170.539062 315.496094 171.292969 C 315.808594 172.042969 316.046875 172.820312 316.207031 173.621094 C 316.367188 174.421875 316.445312 175.230469 316.445312 176.046875 C 316.445312 176.863281 316.367188 177.667969 316.207031 178.46875 C 316.046875 179.269531 315.808594 180.046875 315.496094 180.800781 C 315.183594 181.554688 314.796875 182.269531 314.339844 182.945312 C 313.886719 183.625 313.367188 184.25 312.789062 184.824219 L 263.335938 234.277344 C 262.761719 234.855469 262.136719 235.375 261.457031 235.828125 C 260.78125 236.285156 260.066406 236.667969 259.3125 236.984375 C 258.558594 237.296875 257.78125 237.535156 256.984375 237.695312 C 256.183594 237.855469 255.375 237.933594 254.558594 237.933594 C 253.742188 237.933594 252.933594 237.855469 252.132812 237.695312 C 251.332031 237.535156 250.558594 237.296875 249.804688 236.984375 C 249.050781 236.667969 248.335938 236.285156 247.65625 235.828125 C 246.980469 235.375 246.355469 234.855469 245.78125 234.277344 Z M 245.78125 234.277344 " fill-opacity="1" fill-rule="nonzero"/></g><g clip-path="url(#d3454c85b6)"><path fill="#e6ecff" d="M 126.78125 252.859375 C 127.363281 252.285156 127.878906 251.65625 128.335938 250.980469 C 128.789062 250.304688 129.175781 249.589844 129.488281 248.835938 C 129.800781 248.082031 130.039062 247.304688 130.199219 246.503906 C 130.359375 245.703125 130.441406 244.894531 130.441406 244.082031 C 130.441406 243.265625 130.359375 242.457031 130.199219 241.65625 C 130.039062 240.855469 129.800781 240.078125 129.488281 239.324219 C 129.175781 238.570312 128.789062 237.855469 128.335938 237.179688 C 127.878906 236.503906 127.363281 235.875 126.78125 235.300781 L 85.984375 194.628906 L 126.78125 153.953125 C 127.363281 153.378906 127.878906 152.75 128.335938 152.074219 C 128.789062 151.398438 129.175781 150.683594 129.488281 149.929688 C 129.800781 149.175781 130.039062 148.398438 130.199219 147.597656 C 130.359375 146.796875 130.441406 145.988281 130.441406 145.175781 C 130.441406 144.359375 130.359375 143.550781 130.199219 142.75 C 130.039062 141.949219 129.800781 141.171875 129.488281 140.417969 C 129.175781 139.667969 128.789062 138.949219 128.335938 138.273438 C 127.878906 137.597656 127.363281 136.96875 126.78125 136.394531 C 126.207031 135.816406 125.582031 135.300781 124.90625 134.84375 C 124.226562 134.386719 123.511719 134.003906 122.757812 133.691406 C 122.007812 133.375 121.230469 133.140625 120.429688 132.980469 C 119.628906 132.820312 118.820312 132.738281 118.003906 132.738281 C 117.1875 132.738281 116.378906 132.820312 115.582031 132.980469 C 114.78125 133.140625 114.003906 133.375 113.25 133.691406 C 112.496094 134.003906 111.78125 134.386719 111.105469 134.84375 C 110.425781 135.300781 109.800781 135.816406 109.226562 136.394531 L 59.773438 185.847656 C 59.195312 186.421875 58.675781 187.050781 58.222656 187.726562 C 57.765625 188.402344 57.382812 189.121094 57.066406 189.871094 C 56.753906 190.625 56.515625 191.402344 56.355469 192.203125 C 56.195312 193.003906 56.117188 193.8125 56.117188 194.628906 C 56.117188 195.441406 56.195312 196.25 56.355469 197.050781 C 56.515625 197.851562 56.753906 198.628906 57.066406 199.382812 C 57.382812 200.136719 57.765625 200.851562 58.222656 201.527344 C 58.675781 202.203125 59.195312 202.832031 59.773438 203.40625 L 109.226562 252.859375 C 109.800781 253.4375 110.425781 253.953125 111.105469 254.410156 C 111.78125 254.867188 112.496094 255.25 113.25 255.5625 C 114.003906 255.878906 114.78125 256.113281 115.582031 256.273438 C 116.378906 256.433594 117.1875 256.515625 118.003906 256.515625 C 118.820312 256.515625 119.628906 256.433594 120.429688 256.273438 C 121.230469 256.113281 122.007812 255.878906 122.757812 255.5625 C 123.511719 255.25 124.226562 254.867188 124.90625 254.410156 C 125.582031 253.953125 126.207031 253.4375 126.78125 252.859375 Z M 126.78125 252.859375 " fill-opacity="1" fill-rule="nonzero"/></g><path fill="#e6ecff" d="M 226.894531 101.867188 L 112.203125 192.792969 L 182.667969 205.335938 L 118.144531 300.140625 L 262.703125 174.890625 L 190.421875 171.257812 Z M 226.894531 101.867188 " fill-opacity="1" fill-rule="nonzero"/><path fill="#e6ecff" d="M 224.417969 99.0625 C 211.546875 109.292969 198.675781 119.441406 185.886719 129.671875 C 165.257812 146.011719 144.628906 162.347656 124.003906 178.765625 C 119.300781 182.480469 114.515625 186.273438 109.8125 189.988281 C 108.902344 190.730469 103.375 197.496094 107.5 198.238281 C 128.046875 201.871094 148.589844 205.582031 169.136719 209.214844 C 172.105469 209.707031 174.992188 210.285156 177.964844 210.78125 C 177.882812 208.964844 177.882812 207.148438 177.800781 205.417969 C 158.90625 233.058594 140.09375 260.78125 121.199219 288.421875 C 118.558594 292.382812 115.835938 296.261719 113.195312 300.222656 C 112.121094 301.789062 111.132812 304.59375 113.359375 305.585938 C 115.667969 306.65625 118.96875 304.347656 120.539062 302.945312 C 136.957031 288.835938 153.210938 274.644531 169.546875 260.535156 C 195.457031 238.089844 221.363281 215.648438 247.191406 193.207031 C 253.132812 188.007812 259.070312 182.890625 265.09375 177.695312 C 266.910156 176.125 271.613281 169.527344 266.25 169.277344 C 245.210938 168.207031 224.253906 167.214844 203.210938 166.144531 C 200.160156 165.976562 197.105469 165.8125 193.972656 165.648438 C 194.632812 167.050781 195.375 168.453125 196.035156 169.773438 C 206.679688 149.476562 217.320312 129.261719 227.964844 108.964844 C 229.449219 106.074219 231.019531 103.1875 232.503906 100.382812 C 233.988281 97.578125 231.679688 95.84375 229.039062 96.421875 C 225.574219 97.164062 222.683594 100.300781 221.117188 103.351562 C 210.472656 123.648438 199.828125 143.863281 189.1875 164.164062 C 187.699219 167.050781 186.132812 169.9375 184.648438 172.742188 C 183.574219 174.722656 184.484375 176.785156 186.710938 176.867188 C 207.75 177.941406 228.707031 178.933594 249.75 180.003906 C 252.800781 180.167969 255.855469 180.335938 258.988281 180.5 C 259.402344 177.695312 259.730469 174.890625 260.144531 172.082031 C 243.808594 186.273438 227.46875 200.382812 211.214844 214.574219 C 185.308594 237.019531 159.398438 259.460938 133.574219 281.90625 C 127.632812 287.101562 121.691406 292.21875 115.667969 297.417969 C 118.144531 298.324219 120.621094 299.230469 123.011719 300.140625 C 141.824219 272.414062 160.71875 244.773438 179.53125 217.050781 C 182.171875 213.089844 184.894531 209.214844 187.535156 205.253906 C 188.277344 204.179688 189.847656 200.300781 187.371094 199.890625 C 166.824219 196.257812 146.28125 192.546875 125.734375 188.914062 C 122.765625 188.421875 119.878906 187.84375 116.90625 187.347656 C 116.164062 190.070312 115.339844 192.875 114.597656 195.597656 C 127.46875 185.367188 140.339844 175.21875 153.210938 164.988281 C 173.839844 148.652344 194.464844 132.3125 215.09375 115.894531 C 219.796875 112.179688 224.582031 108.386719 229.285156 104.671875 C 231.019531 103.351562 234.402344 99.308594 232.421875 97 C 230.441406 94.6875 225.984375 97.824219 224.417969 99.0625 Z M 224.417969 99.0625 " fill-opacity="1" fill-rule="nonzero"/></svg>
